<svg viewBox="0 0 30 29" fill="currentColor" xmlns="http://www.w3.org/2000/svg">
<path d="M15 -1.90735e-06C6.7125 -1.90735e-06 0 6.54251 0 14.6116C0 21.0686 4.2975 26.5443 10.2562 28.4748C11.0062 28.6123 11.2812 28.1601 11.2812 27.7722C11.2812 27.4253 11.2687 26.5058 11.2625 25.2878C7.09 26.1688 6.21 23.3275 6.21 23.3275C5.5275 21.6411 4.54125 21.1901 4.54125 21.1901C3.1825 20.2843 4.64625 20.3028 4.64625 20.3028C6.1525 20.4045 6.94375 21.8084 6.94375 21.8084C8.28125 24.0425 10.455 23.3969 11.3125 23.0239C11.4475 22.0785 11.8338 21.4354 12.2625 21.0699C8.93125 20.7043 5.43 19.4479 5.43 13.8496C5.43 12.2548 6.01125 10.9513 6.97375 9.929C6.805 9.55975 6.29875 8.07405 7.105 6.06173C7.105 6.06173 8.36125 5.67017 11.23 7.55982C12.43 7.23517 13.705 7.07409 14.98 7.06665C16.255 7.07409 17.53 7.23517 18.73 7.55982C21.58 5.67017 22.8362 6.06173 22.8362 6.06173C23.6425 8.07405 23.1362 9.55975 22.9862 9.929C23.9425 10.9513 24.5237 12.2548 24.5237 13.8496C24.5237 19.4627 21.0175 20.6981 17.68 21.0575C18.205 21.4961 18.6925 22.392 18.6925 23.7612C18.6925 25.7165 18.6737 27.2877 18.6737 27.7623C18.6737 28.1452 18.9362 28.6024 19.705 28.4562C25.7062 26.5381 30 21.0587 30 14.6116C30 6.54251 23.2837 -1.90735e-06 15 -1.90735e-06Z" />
</svg>
